<svg width="40" height="42" viewBox="0 0 40 42" fill="none" xmlns="http://www.w3.org/2000/svg">
<g id="Group 35">
<ellipse id="Ellipse 39" cx="20" cy="21.0156" rx="20" ry="20.7524" fill="#4E484B"/>
<path id="Vector" d="M26.6643 27.2456L22.4249 22.8482C23.0992 21.9972 23.5053 20.9066 23.5053 19.7212C23.5053 17.0027 21.3738 14.7896 18.7525 14.7896C16.1328 14.7896 14 17.0012 14 19.7212C14 22.4412 16.1313 24.6529 18.7525 24.6529C19.8949 24.6529 20.9458 24.2315 21.7659 23.5318L26.0069 27.9295C26.0984 28.0244 26.2162 28.0711 26.3355 28.0711C26.4549 28.0711 26.5742 28.0244 26.6641 27.9295C26.8454 27.7397 26.8454 27.4341 26.6641 27.2458L26.6643 27.2456ZM14.9319 19.7195C14.9319 17.5319 16.6463 15.7527 18.7545 15.7527C20.8627 15.7527 22.5772 17.5318 22.5772 19.7195C22.5771 21.907 20.8627 23.6862 18.7545 23.6862C16.6465 23.6862 14.9319 21.9072 14.9319 19.7195Z" fill="#F2ECEC"/>
</g>
</svg>
